<svg width="24" height="24" viewBox="0 0 24 24" fill="none" xmlns="http://www.w3.org/2000/svg">
<path d="M2.9 7.15C3.15 6.9 3.446 6.775 3.788 6.775C4.12933 6.775 4.425 6.9 4.675 7.15L12 14.475L19.35 7.125C19.5833 6.89167 19.875 6.775 20.225 6.775C20.575 6.775 20.875 6.9 21.125 7.15C21.375 7.4 21.5 7.696 21.5 8.038C21.5 8.37933 21.375 8.675 21.125 8.925L12.7 17.325C12.6 17.425 12.4917 17.496 12.375 17.538C12.2583 17.5793 12.1333 17.6 12 17.6C11.8667 17.6 11.7417 17.5793 11.625 17.538C11.5083 17.496 11.4 17.425 11.3 17.325L2.875 8.9C2.64167 8.66667 2.525 8.37933 2.525 8.038C2.525 7.696 2.65 7.4 2.9 7.15Z" fill="white"/>
</svg>
